<svg id="Layer_1" data-name="Layer 1" xmlns="http://www.w3.org/2000/svg" viewBox="0 0 40 40"><defs><style>.cls-1{fill:#fff;}</style></defs><path class="cls-1" d="M45,20.94c-.12.62-.2,1.26-.36,1.87a16.8,16.8,0,0,1-5.8,8.73A15,15,0,0,1,32,34.89a8.27,8.27,0,0,1-5.66-.68,6.7,6.7,0,0,1-3.57-6A12.58,12.58,0,0,1,25,20.67a17.37,17.37,0,0,1,8.88-7.18A9.89,9.89,0,0,1,40,13.11a6.7,6.7,0,0,1,4.94,5.77c0,.14,0,.28.08.42ZM30,30.49l0-.09c.31,0,.63,0,.93-.1a6.56,6.56,0,0,0,.88-.19A12.33,12.33,0,0,0,38,25.81a9.86,9.86,0,0,0,2.32-5.16,3.1,3.1,0,0,0-.5-2.38,1.14,1.14,0,0,0-1.5-.31,1.07,1.07,0,0,0-.52,1.39,2.28,2.28,0,0,1,.08,1.7,9,9,0,0,1-2.52,4.2,9,9,0,0,1-4.41,2.67,2.72,2.72,0,0,1-1.36,0c-.71-.24-1.34-.15-1.66.43A1.15,1.15,0,0,0,28.42,30,10.26,10.26,0,0,0,30,30.49Z" transform="translate(-5 -5)"/><path class="cls-1" d="M16.64,5c.65.1,1.31.18,2,.32a11.14,11.14,0,0,1,5.22,2.47,5.85,5.85,0,0,1,0,9.24A11.25,11.25,0,0,1,18,19.64a14,14,0,0,1-8.49-1.13,7.82,7.82,0,0,1-3.74-3.35A13.53,13.53,0,0,1,5,13.05V11.8a1.06,1.06,0,0,0,.06-.19,5.92,5.92,0,0,1,1.4-3,10.33,10.33,0,0,1,5.7-3.22c.75-.18,1.53-.27,2.29-.4ZM15.46,15.16a9.42,9.42,0,0,0,3.75-.71,4.65,4.65,0,0,0,1.85-1.27A1.17,1.17,0,0,0,21,11.56a1.19,1.19,0,0,0-1.63,0,4.16,4.16,0,0,1-1,.65,7,7,0,0,1-4.2.45,4.54,4.54,0,0,1-2.54-1.16,1.12,1.12,0,0,0-1.53,0A1.14,1.14,0,0,0,10,13.11,4.5,4.5,0,0,0,11,14,8.47,8.47,0,0,0,15.46,15.16Z" transform="translate(-5 -5)"/><path class="cls-1" d="M5,32c.09-.4.16-.81.27-1.21a5.7,5.7,0,0,1,5.44-4.1,10.11,10.11,0,0,1,5.37,1.4A14,14,0,0,1,23,36.74a7.53,7.53,0,0,1,.05,4,5.58,5.58,0,0,1-4.74,4.13L18,45H16.41c-.33-.06-.67-.11-1-.2a13.87,13.87,0,0,1-9.78-8.73A18.4,18.4,0,0,1,5,33.59Zm4.69.84a1.69,1.69,0,0,0,0,.28,3.57,3.57,0,0,0,.1.57,9.28,9.28,0,0,0,5.64,6.2,6.5,6.5,0,0,0,2,.37,1.13,1.13,0,0,0,1.13-1.2A1.19,1.19,0,0,0,17.39,38a4,4,0,0,1-1-.19,6.92,6.92,0,0,1-3.11-2.33,4.82,4.82,0,0,1-1.23-3,1,1,0,0,0-.58-.88C10.58,31.09,9.68,31.72,9.69,32.87Z" transform="translate(-5 -5)"/></svg>