<svg id="Layer_1" data-name="Layer 1" xmlns="http://www.w3.org/2000/svg" viewBox="0 0 40 34.35"><defs><style>.cls-1{fill:#fff;}</style></defs><path class="cls-1" d="M45,42.19l-.5,0H28.61V35.49h2.31v2.3h2.34V35.48h2.33V33.14H33.28V30.81H30.94V33.1H28.6a3.77,3.77,0,0,0-2.5-3.84V26.44H44.5a4.38,4.38,0,0,0,.5,0Z" transform="translate(-5 -7.84)"/><path class="cls-1" d="M5,24l.35,0q4.59,0,9.18,0l.4,0V42.13h-2.3V35.26H7.36v6.93H5Z" transform="translate(-5 -7.84)"/><path class="cls-1" d="M23.73,26.43v2.62H17.31V21.62H7.53A5.66,5.66,0,0,1,8.73,17a5.15,5.15,0,0,1,4.45-1.69c-2.4-.82-3.52-2.44-3.14-4.4a3.73,3.73,0,1,1,4.27,4.35c.51,0,1,0,1.42.11a4.93,4.93,0,0,1,4.2,4.81c0,1.92,0,3.85,0,5.78v.46Z" transform="translate(-5 -7.84)"/><path class="cls-1" d="M42.48,24.09h-7c-.32,0-.47-.05-.51-.43-.16-1.5-.37-3-.56-4.54H30.21a4.91,4.91,0,0,1,2-2.94,5.13,5.13,0,0,1,3.4-.87,8.8,8.8,0,0,1-1.35-.64,4.18,4.18,0,0,1-1.09-1.09,4,4,0,0,1-.55-1.44,4,4,0,0,1,.07-1.54,3.7,3.7,0,0,1,3.82-2.76,3.74,3.74,0,0,1,.48,7.4,15.62,15.62,0,0,1,1.74.22,4.91,4.91,0,0,1,3.77,4.72c0,1.2,0,2.4,0,3.6C42.5,23.87,42.49,24,42.48,24.09Z" transform="translate(-5 -7.84)"/><path class="cls-1" d="M22.44,35.22H17.32V31.43h7.39a1.36,1.36,0,0,1,1.53,1.51v9.21h-3.8Z" transform="translate(-5 -7.84)"/><path class="cls-1" d="M32.35,21.5l.32,2.56H26.74l-.33-2.56Z" transform="translate(-5 -7.84)"/></svg>