<svg id="Layer_1" data-name="Layer 1" xmlns="http://www.w3.org/2000/svg" viewBox="0 0 40 39.96"><defs><style>.cls-1{fill:#fff;}</style></defs><path class="cls-1" d="M42.14,38.83H20.73c0-.18,0-.34,0-.49V29.83c0-1.17.55-1.76,1.65-1.76H37.72c4.15,0,7.27,3.37,7.27,7.85q0,3.75,0,7.49a1.49,1.49,0,0,1-.86,1.45,1.29,1.29,0,0,1-1.53-.29,1.58,1.58,0,0,1-.46-1.25Z" transform="translate(-5 -5.04)"/><path class="cls-1" d="M17.83,32.67v6.15h-10v.54c0,1.31,0,2.63,0,3.94A1.51,1.51,0,0,1,6.44,45,1.51,1.51,0,0,1,5,43.29V19c0-1,.58-1.71,1.43-1.71S7.85,18,7.85,19c0,4.34,0,8.68,0,13v.63Z" transform="translate(-5 -5.04)"/><path class="cls-1" d="M28.05,15.75c0,1,0,1.93,0,2.87a1.55,1.55,0,0,1-1.71,1.72H23.57a1.54,1.54,0,0,1-1.63-1.65c0-1,0-1.91,0-2.94H18.89a1.51,1.51,0,0,1-1.53-1.51c0-1,0-2.07,0-3.11a1.5,1.5,0,0,1,1.53-1.5c1,0,2,0,3.05,0V6.79A1.55,1.55,0,0,1,23.67,5h2.77a1.53,1.53,0,0,1,1.61,1.63c0,1,0,1.93,0,3h2.74c1.3,0,1.85.56,1.85,1.87,0,.87,0,1.75,0,2.62A1.53,1.53,0,0,1,31,15.75Z" transform="translate(-5 -5.04)"/><path class="cls-1" d="M15,29.6A4.61,4.61,0,1,1,19.6,25,4.62,4.62,0,0,1,15,29.6Z" transform="translate(-5 -5.04)"/></svg>