<svg id="Layer_1" data-name="Layer 1" xmlns="http://www.w3.org/2000/svg" viewBox="0 0 35.79 40"><defs><style>.cls-1{fill:#fff;}</style></defs><path class="cls-1" d="M39.53,45H10.47l-.06,0a3.92,3.92,0,0,1-3.3-4.26V9a3.72,3.72,0,0,1,1.7-3.29A9.87,9.87,0,0,1,10.47,5H39.53l.06,0a3.91,3.91,0,0,1,3.3,4.22V31.71c0,3.11,0,6.22,0,9.33a3.9,3.9,0,0,1-2.73,3.78C40,44.89,39.74,44.94,39.53,45ZM8.67,25V40.87a2.36,2.36,0,0,0,2.58,2.57h27.5a2.36,2.36,0,0,0,2.58-2.57V9.15a2.37,2.37,0,0,0-2.6-2.59H11.27a2.37,2.37,0,0,0-2.6,2.59Z" transform="translate(-7.11 -5)"/><path class="cls-1" d="M25,17.17h13c.87,0,1.09.22,1.09,1.07V40.15c0,.86-.23,1.1-1.08,1.1H11.93c-.83,0-1.07-.24-1.07-1.06v-22c0-.79.24-1,1-1Zm1.8,22.51A1.63,1.63,0,0,1,27,38c.4-.66.73-1.36,1.16-2A4.28,4.28,0,0,0,29,32.86a.75.75,0,0,1,0-.15.35.35,0,0,1,.39-.38q1.23,0,2.46,0a.35.35,0,0,1,.4.41c0,.42,0,.84,0,1.25a2.55,2.55,0,0,0,.24.91c.54,1,1.11,2,1.68,2.91a1.78,1.78,0,0,1,.31,1.85h3V30H12.44v9.66h3A1.66,1.66,0,0,1,15.69,38c.43-.7.78-1.45,1.25-2.12a4.09,4.09,0,0,0,.78-3,1.33,1.33,0,0,1,0-.2c0-.26.13-.38.39-.38q1.23,0,2.46,0c.28,0,.4.14.4.41s0,.86,0,1.28a2.4,2.4,0,0,0,.24.88c.54,1,1.11,2,1.69,2.94a1.8,1.8,0,0,1,.3,1.84ZM37.56,18.76H12.45v9.65h3a1.73,1.73,0,0,1,.25-1.75c.39-.63.7-1.31,1.12-1.91a4.29,4.29,0,0,0,.87-3.18V21.5c0-.3.12-.43.42-.43h2.38c.35,0,.46.16.46.48s0,.81,0,1.21a2.4,2.4,0,0,0,.24.87c.54,1,1.1,1.95,1.67,2.91a1.8,1.8,0,0,1,.32,1.86h3.57A1.73,1.73,0,0,1,27,26.71c.42-.67.75-1.4,1.2-2.05a4.14,4.14,0,0,0,.82-3,.85.85,0,0,1,0-.16c0-.27.13-.4.41-.4h2.42c.29,0,.43.12.42.42a10.41,10.41,0,0,0,0,1.25,2.37,2.37,0,0,0,.25.91c.49.91,1,1.81,1.55,2.71.37.63.85,1.24.43,2.05h3Z" transform="translate(-7.11 -5)"/><path class="cls-1" d="M32.86,9.53H37a1.2,1.2,0,0,1,1.32,1.33c0,.71,0,1.41,0,2.11a1.18,1.18,0,0,1-1.25,1.25H28.53A1.18,1.18,0,0,1,27.28,13c0-.72,0-1.43,0-2.15a1.2,1.2,0,0,1,1.29-1.29Z" transform="translate(-7.11 -5)"/><path class="cls-1" d="M15.55,11.89a2,2,0,1,1-2-2A2,2,0,0,1,15.55,11.89Z" transform="translate(-7.11 -5)"/><path class="cls-1" d="M20.09,13.83a2,2,0,1,1,2-1.94A1.93,1.93,0,0,1,20.09,13.83Z" transform="translate(-7.11 -5)"/></svg>