<svg id="Layer_1" data-name="Layer 1" xmlns="http://www.w3.org/2000/svg" viewBox="0 0 40 40.01"><defs><style>.cls-1{fill:#fff;}</style></defs><path class="cls-1" d="M7.14,26.39V23.1a2.16,2.16,0,0,1,2.37-2.39h3.93a2.14,2.14,0,0,1,2.27,2.08c0,.57.3.78,1,.78H39a3.61,3.61,0,0,1,3.84,2.83l.29,0a2.15,2.15,0,0,1-.24,4.28H36.46c0,.48,0,.93-.11,1.36A3.52,3.52,0,0,1,32.9,35c-1.5,0-3,0-4.51,0h-.51v1.42a2.66,2.66,0,0,1,2.2.64,2.17,2.17,0,0,1,.52,2.22h.87a2.13,2.13,0,0,1,2.09,2.08q0,.78,0,1.56A2.1,2.1,0,0,1,31.5,45q-6.49,0-13,0a2.11,2.11,0,0,1-2.08-2.08c0-.49,0-1,0-1.48a2.14,2.14,0,0,1,2.16-2.15h.79a2.2,2.2,0,0,1,.52-2.21,2.59,2.59,0,0,1,2.21-.64V35H17.25a3.58,3.58,0,0,1-3.68-3.7v-.59h-.5c-1.86,0-3.72,0-5.58,0a2.24,2.24,0,0,1-2.49-2C4.9,27.54,5.69,26.65,7.14,26.39Zm34.12,0A2.1,2.1,0,0,0,39.1,25H16.61a2.15,2.15,0,0,1-2.33-2.12.71.71,0,0,0-.74-.73c-1.41,0-2.82,0-4.24,0a.66.66,0,0,0-.72.65c0,1.2,0,2.4,0,3.61ZM25,40.71H18.78c-.68,0-.92.24-.93.91v.89c0,.86.2,1.06,1,1.06H31.26c.61,0,.87-.26.88-.86v-1c0-.8-.21-1-1-1Zm-10-10v.5a2.16,2.16,0,0,0,2.32,2.34h4.37l.41,0V30.73Zm20,0H27.89v2.82c1.72,0,3.41,0,5.11,0a1.92,1.92,0,0,0,1.55-.83A2.64,2.64,0,0,0,35,30.74Zm-11.38,0v5.66h2.8V30.73Z" transform="translate(-4.99 -4.99)"/><path class="cls-1" d="M15,19.28H7.36A2.15,2.15,0,0,1,5,16.93V7.34A2.15,2.15,0,0,1,7.32,5H22.67A2.16,2.16,0,0,1,25,7.29V17a2.16,2.16,0,0,1-2.33,2.3ZM14.28,11v2.21a1.44,1.44,0,0,0,2.47,1.06c.38-.36.75-.73,1.1-1.11a.86.86,0,0,1,.7-.3c.68,0,1.37,0,2.05,0,.5,0,.81-.28.82-.7s-.31-.72-.83-.73H18.32A1.66,1.66,0,0,0,17,12c-.39.42-.8.82-1.3,1.33V11.08A1.44,1.44,0,0,0,13.24,10c-.37.37-.75.73-1.1,1.11a.85.85,0,0,1-.7.3c-.68,0-1.37,0-2,0-.5,0-.81.28-.82.7s.31.72.83.73h2.27A1.64,1.64,0,0,0,13,12.31C13.38,11.89,13.79,11.49,14.28,11Z" transform="translate(-4.99 -4.99)"/><path class="cls-1" d="M42.94,12.6a3.65,3.65,0,0,1-1.24,2.76.74.74,0,0,0-.27.87,2,2,0,0,1-1,2.29,2.07,2.07,0,0,1-2.52-.25c-.74-.7-1.46-1.44-2.18-2.17-1.33-1.32-2.66-2.63-4-4a2.09,2.09,0,0,1,.83-3.49,2.36,2.36,0,0,1,1.18,0,.72.72,0,0,0,.8-.27,3.61,3.61,0,0,1,2.74-1.27A3.31,3.31,0,0,1,39.7,8c.8.76,1.58,1.53,2.33,2.33A3.4,3.4,0,0,1,42.94,12.6Zm-2.86,4a2.51,2.51,0,0,0-.3-.46l-5.87-5.88a1.12,1.12,0,0,0-.24-.19.65.65,0,0,0-.85.1.63.63,0,0,0-.12.85,1.48,1.48,0,0,0,.25.31L38.7,17a1.43,1.43,0,0,0,.47.33C39.62,17.51,40.09,17.14,40.08,16.55Z" transform="translate(-4.99 -4.99)"/></svg>